<svg xmlns="http://www.w3.org/2000/svg" width="700" height="760" viewBox="0 0 700 760">
<defs>
 <radialGradient id="fur" cx="45%" cy="30%"><stop offset="0" stop-color="#8b5a2b"/><stop offset="1" stop-color="#2b150b"/></radialGradient>
 <linearGradient id="armor" x1="0" y1="0" x2="1" y2="1"><stop stop-color="#58616c"/><stop offset=".5" stop-color="#161b22"/><stop offset="1" stop-color="#05070a"/></linearGradient>
 <linearGradient id="gold"><stop stop-color="#fff08a"/><stop offset=".45" stop-color="#f7b500"/><stop offset="1" stop-color="#9b5700"/></linearGradient>
 <filter id="shadow"><feDropShadow dx="0" dy="18" stdDeviation="15" flood-opacity=".45"/></filter>
</defs>
<g filter="url(#shadow)">
 <ellipse cx="350" cy="690" rx="250" ry="42" fill="#000" opacity=".3"/>
 <path d="M150 330 Q65 410 95 620 Q170 720 350 720 Q530 720 605 620 Q635 410 550 330Z" fill="url(#armor)" stroke="#0b0d11" stroke-width="18"/>
 <circle cx="180" cy="185" r="100" fill="url(#fur)" stroke="#1f0e07" stroke-width="18"/>
 <circle cx="520" cy="185" r="100" fill="url(#fur)" stroke="#1f0e07" stroke-width="18"/>
 <circle cx="350" cy="245" r="215" fill="url(#fur)" stroke="#1f0e07" stroke-width="20"/>
 <ellipse cx="350" cy="320" rx="125" ry="100" fill="#b67b45"/>
 <ellipse cx="350" cy="292" rx="58" ry="43" fill="#17100c"/>
 <path d="M290 350 Q350 405 410 350" fill="none" stroke="#2b1209" stroke-width="18" stroke-linecap="round"/>
 <path d="M230 235 Q275 195 315 235" fill="none" stroke="#130b08" stroke-width="22" stroke-linecap="round"/>
 <path d="M385 235 Q425 195 470 235" fill="none" stroke="#130b08" stroke-width="22" stroke-linecap="round"/>
 <ellipse cx="275" cy="255" rx="26" ry="35" fill="#ff3b20"/><ellipse cx="425" cy="255" rx="26" ry="35" fill="#ff3b20"/>
 <circle cx="283" cy="244" r="8" fill="#fff"/><circle cx="433" cy="244" r="8" fill="#fff"/>
 <path d="M215 55 L270 120 L350 35 L430 120 L485 55 L500 165 L200 165Z" fill="url(#gold)" stroke="#693800" stroke-width="15"/>
 <circle cx="270" cy="105" r="19" fill="#e83b35"/><circle cx="350" cy="78" r="22" fill="#3c7dff"/><circle cx="430" cy="105" r="19" fill="#33c873"/>
 <path d="M160 430 Q80 470 82 600 Q105 665 195 640 L245 475Z" fill="url(#fur)" stroke="#1f0e07" stroke-width="18"/>
 <path d="M540 430 Q620 470 618 600 Q595 665 505 640 L455 475Z" fill="url(#fur)" stroke="#1f0e07" stroke-width="18"/>
 <path d="M272 445 Q350 500 428 445 L445 590 Q350 650 255 590Z" fill="#7b1116" stroke="#3b0508" stroke-width="16"/>
 <circle cx="350" cy="530" r="67" fill="url(#gold)" stroke="#704000" stroke-width="14"/>
 <path d="M322 530 L350 485 L378 530 L350 575Z" fill="#553100"/>
 <path d="M110 620 q70 50 145 4" fill="none" stroke="#d4d8df" stroke-width="18" stroke-linecap="round"/>
 <path d="M590 620 q-70 50 -145 4" fill="none" stroke="#d4d8df" stroke-width="18" stroke-linecap="round"/>
</g></svg>